<svg xmlns="http://www.w3.org/2000/svg" version="1.1" xmlns:xlink="http://www.w3.org/1999/xlink" xmlns:svgjs="http://svgjs.com/svgjs" width="30px" height="30px"><svg xmlns="http://www.w3.org/2000/svg" viewBox="0 0 30 30" width="30px" height="30px">    <path d="M 7 2 C 5.895 2 5 2.895 5 4 L 5 26 C 5 27.105 5.895 28 7 28 L 16.3125 28 C 17.0765 25.778 19.064766 25.045297 20.134766 24.654297 C 20.196766 24.631297 20.266891 24.605125 20.337891 24.578125 C 20.101891 24.268125 19.878937 23.920828 19.710938 23.548828 C 19.212937 23.016828 18.849609 22.237766 18.849609 21.259766 C 18.849609 21.090766 18.861766 20.930297 18.884766 20.779297 C 18.720766 20.337297 18.585937 19.786016 18.585938 19.166016 C 18.587937 16.173016 20.864 14 24 14 C 24.357 14 24.687 14.06525 25 14.15625 L 25 9.5 C 25 9.235 24.895031 8.9799688 24.707031 8.7929688 L 18.207031 2.2929688 C 18.019031 2.1049688 17.765 2 17.5 2 L 7 2 z M 17 3.9042969 L 23.095703 10 L 18 10 C 17.448 10 17 9.552 17 9 L 17 3.9042969 z M 24 15.998047 C 22.116 15.998047 20.587891 17.134016 20.587891 19.166016 C 20.587891 20.025016 21.068359 20.693359 21.068359 20.693359 C 21.068359 20.693359 20.849609 20.800766 20.849609 21.259766 C 20.849609 22.150766 21.423828 22.365234 21.423828 22.365234 C 21.503828 23.071234 22.599609 24.105469 22.599609 24.105469 L 22.599609 25.283203 C 22.010609 27.052203 18 26.039 18 30 L 30 30 C 30 26.039 25.989391 27.052203 25.400391 25.283203 L 25.400391 24.105469 C 25.400391 24.105469 26.497172 23.071234 26.576172 22.365234 C 26.576172 22.365234 27.150391 21.968766 27.150391 21.259766 C 27.150391 20.767766 26.931641 20.693359 26.931641 20.693359 C 26.931641 20.693359 27.324219 19.946422 27.324219 19.232422 C 27.324219 17.801422 26.607391 16.699219 25.400391 16.699219 C 25.400391 16.699219 24.887 15.998047 24 15.998047 z"></path></svg><style>@media (prefers-color-scheme: light) { :root { filter: none; } }
@media (prefers-color-scheme: dark) { :root { filter: invert(100%); } }
</style></svg>