<?xml version="1.0" standalone="no"?>
<!DOCTYPE svg PUBLIC "-//W3C//DTD SVG 20010904//EN"
 "http://www.w3.org/TR/2001/REC-SVG-20010904/DTD/svg10.dtd">
<svg version="1.0" xmlns="http://www.w3.org/2000/svg"
 width="700.000000pt" height="700.000000pt" viewBox="0 0 700.000000 700.000000"
 preserveAspectRatio="xMidYMid meet">
<metadata>
Created by potrace 1.14, written by Peter Selinger 2001-2017
</metadata>
<g transform="translate(0.000000,700.000000) scale(0.100000,-0.100000)"
fill="#000000" stroke="none">
<path d="M1518 6519 c-125 -29 -246 -131 -306 -256 l-37 -78 0 -2685 0 -2685
37 -78 c61 -128 158 -209 297 -251 49 -14 174 -16 1176 -16 l1121 0 23 58
c124 307 380 530 791 689 63 25 116 46 118 48 2 2 -14 30 -36 62 -21 32 -54
85 -73 118 -18 33 -47 78 -65 100 -49 61 -110 181 -135 265 -16 57 -23 109
-26 215 -3 111 -9 160 -29 235 -49 178 -44 424 12 618 53 182 144 340 275 477
180 188 413 308 687 355 137 24 321 26 407 5 33 -8 63 -14 68 -15 4 0 7 255 7
568 0 547 -1 569 -21 612 -30 68 -1553 1592 -1624 1626 l-50 24 -1290 -1
c-709 -1 -1307 -5 -1327 -10z m3255 -1847 c-422 -2 -620 1 -646 8 -49 14 -115
74 -138 125 -17 37 -19 82 -19 660 l0 620 705 -705 705 -705 -607 -3z"/>
<path d="M5472 3259 c-402 -52 -660 -327 -665 -709 -1 -123 16 -199 70 -308
35 -71 35 -73 17 -93 -16 -18 -19 -37 -19 -123 0 -117 17 -160 83 -217 22 -19
43 -45 47 -59 25 -80 92 -182 202 -306 l63 -71 0 -145 c0 -141 -1 -145 -29
-189 -57 -90 -122 -130 -380 -229 -211 -81 -335 -142 -409 -204 -150 -122
-231 -292 -248 -516 l-7 -90 1402 0 1401 0 0 41 c0 185 -77 392 -189 507 -104
106 -191 154 -472 263 -258 98 -323 138 -380 228 -28 44 -29 48 -29 189 l0
145 58 64 c113 128 183 233 207 313 4 14 25 44 47 68 22 24 51 68 65 98 21 47
25 67 22 134 -3 58 -9 83 -23 98 -18 20 -17 23 17 120 20 54 40 130 45 168 11
79 1 219 -23 307 -50 190 -196 335 -355 354 -47 5 -63 13 -108 53 -115 102
-229 133 -410 109z"/>
</g>
</svg>
